# xmcd CD database file
#
# Track frame offsets:
#	150
#	12550
#	24202
#	37673
#	47564
#	60610
#	73221
#	86407
#	98884
#	110679
#	122588
#	134877
#	145983
#	158278
#	170130
#	180960
#	193790
#	206280
#	218436
#	231228
#	242016
#	255707
#
# Disc length: 3555 seconds
#
# Revision: 0
# Processed by: cddbd v1.5.1PL2 Copyright (c) Steve Scherf et al.
# Submitted via: CDex 1.50
#
DISCID=2c0de116
DTITLE=Hank Williams - Settin' the Woods on Fire [CD2]
DYEAR=2005
DGENRE=Country
TTITLE0=Move It on Over
TTITLE1=A Mansion on the Hill
TTITLE2=I'd Still Want You
TTITLE3=Honky Tonk Blues
TTITLE4=Calling You
TTITLE5=I Don't Care (If Tomorrow Never Comes)
TTITLE6=Mind Your Own Business
TTITLE7=They'll Never Take Her Love from Me
TTITLE8=Settin' the Woods on Fire
TTITLE9=Take These Chains from My Heart
TTITLE10=Howlin' at the Moon
TTITLE11=Crazy Heart
TTITLE12=My Sweet Love Ain't Around
TTITLE13=Long Gone Lonesome Blues
TTITLE14=I Can't Help It (If I'm Still in Love with You)
TTITLE15=Everything's Okay
TTITLE16=Rootie Tootie
TTITLE17=The Blues Come Around
TTITLE18=May You Never Be Alone
TTITLE19=Let's Turn Back the Years
TTITLE20=Ramblin' Man
TTITLE21=I'll Never Get Out of This World Alive
EXTD=YEAR: 2005
EXTT0=
EXTT1=
EXTT2=
EXTT3=
EXTT4=
EXTT5=
EXTT6=
EXTT7=
EXTT8=
EXTT9=
EXTT10=
EXTT11=
EXTT12=
EXTT13=
EXTT14=
EXTT15=
EXTT16=
EXTT17=
EXTT18=
EXTT19=
EXTT20=
EXTT21=
PLAYORDER=
